<?xml version="1.0" ?>
<mxfile host="app.diagrams.net">
  <diagram name="Mermaid Diagram">
    <mxGraphModel>
      <root>
        <mxCell id="0"/>
        <mxCell id="1" parent="0"/>
        <mxCell id="group_a88724f8" value="Sample Group" style="swimlane;collapsible=0;" vertex="1" parent="1">
          <mxGeometry x="70" y="70" width="1600" height="1200" as="geometry"/>
        </mxCell>
        <mxCell id="A" value="Start" style="shape=rectangle;fillColor=#aaf;strokeColor=#333;strokeWidth=2" vertex="1" parent="group_a88724f8">
          <mxGeometry x="60" y="60" width="180" height="60" as="geometry"/>
        </mxCell>
        <mxCell id="B" value="B" style="shape=rectangle;fillColor=#faa;strokeColor=#000;strokeWidth=2" vertex="1" parent="1">
          <mxGeometry x="60" y="140" width="180" height="60" as="geometry"/>
        </mxCell>
        <mxCell id="C" value="C" style="shape=rectangle;fillColor=#afa;strokeColor=#333;strokeWidth=2" vertex="1" parent="1">
          <mxGeometry x="60" y="220" width="180" height="60" as="geometry"/>
        </mxCell>
        <mxCell value="&quot;Metrics&quot;" style="endArrow=block;" edge="1" source="B" target="C" parent="1">
          <mxGeometry relative="1" as="geometry"/>
        </mxCell>
      </root>
    </mxGraphModel>
  </diagram>
</mxfile>
